<?xml version="1.0" standalone="no"?>
<!DOCTYPE svg PUBLIC "-//W3C//DTD SVG 20010904//EN"
 "http://www.w3.org/TR/2001/REC-SVG-20010904/DTD/svg10.dtd">
<svg version="1.0" xmlns="http://www.w3.org/2000/svg"
 width="700.000000pt" height="700.000000pt" viewBox="0 0 700.000000 700.000000"
 preserveAspectRatio="xMidYMid meet">
<metadata>
Created by potrace 1.11, written by Peter Selinger 2001-2013
</metadata>
<g transform="translate(0.000000,700.000000) scale(0.100000,-0.100000)"
fill="#000000" stroke="none">
<path d="M3378 6865 c-2 -2 -43 -6 -93 -10 -49 -4 -99 -8 -110 -9 -46 -6 -150
-20 -155 -21 -3 -1 -25 -5 -50 -9 -25 -5 -52 -10 -60 -11 -144 -27 -400 -103
-555 -165 -107 -43 -338 -151 -385 -180 -8 -5 -64 -39 -125 -76 -98 -59 -236
-152 -291 -197 -317 -256 -532 -487 -732 -784 -225 -336 -387 -713 -476 -1108
-25 -112 -27 -122 -46 -255 -6 -41 -13 -88 -15 -105 -18 -112 -24 -430 -12
-612 13 -207 62 -476 128 -699 334 -1144 1282 -2031 2444 -2288 39 -8 86 -18
105 -21 19 -3 58 -10 85 -15 217 -40 736 -49 911 -16 10 2 44 7 74 10 106 12
311 56 430 92 46 14 92 27 101 29 8 2 78 27 155 56 236 89 493 222 689 357
126 87 120 75 73 140 -22 32 -143 205 -269 386 -126 182 -233 334 -238 339 -6
6 -52 -19 -123 -66 -406 -270 -839 -398 -1323 -392 -183 3 -233 8 -400 41
-466 91 -869 308 -1202 645 -128 130 -195 213 -292 360 -134 201 -249 458
-306 679 -27 109 -44 191 -51 254 -3 28 -7 53 -9 56 -2 4 -7 53 -11 111 -30
441 50 848 241 1231 51 101 136 244 177 298 10 14 47 61 80 105 66 87 275 300
348 355 25 19 47 38 50 41 20 28 288 193 403 249 446 218 970 289 1437 194
133 -27 151 -32 256 -64 415 -130 780 -371 1069 -705 205 -236 376 -547 461
-838 15 -51 31 -95 37 -99 6 -3 22 -2 36 3 13 6 68 23 120 39 53 15 193 58
311 95 118 37 270 83 337 104 l121 36 -42 135 c-82 261 -178 474 -313 699 -71
117 -217 330 -260 376 -10 11 -50 58 -90 105 -133 158 -355 362 -549 503 -191
139 -466 293 -664 372 -52 21 -108 43 -125 50 -116 49 -474 143 -610 160 -27
3 -57 8 -65 10 -8 2 -42 7 -75 10 -33 4 -78 9 -100 12 -41 5 -452 12 -457 8z"/>
<path d="M3700 4249 c-117 -16 -225 -51 -345 -113 -215 -111 -411 -315 -527
-548 -113 -225 -134 -464 -56 -622 l19 -38 29 61 c41 87 84 146 161 222 113
111 210 169 474 280 249 104 368 175 509 302 90 81 156 165 197 252 l29 59
-26 27 c-34 36 -156 94 -228 109 -73 15 -163 18 -236 9z"/>
<path d="M6043 4058 c-89 -15 -156 -65 -199 -149 -34 -68 -43 -114 -59 -304
-9 -119 -17 -201 -20 -237 -4 -35 -2 -38 23 -39 15 -1 38 -2 52 -4 24 -3 155
-14 235 -20 22 -2 67 -6 100 -9 33 -3 94 -8 135 -11 41 -3 91 -7 110 -10 19
-2 73 -7 120 -10 47 -3 97 -8 113 -11 21 -4 27 -2 28 13 0 10 2 25 3 33 2 8 6
54 10 103 7 86 6 87 -16 88 -13 1 -32 3 -43 4 -11 1 -65 6 -120 10 -140 10
-130 7 -128 46 17 255 2 344 -71 427 -50 57 -183 96 -273 80z m119 -258 c43
-20 60 -61 57 -146 -4 -124 -5 -126 -53 -120 -22 3 -77 8 -121 12 -77 6 -97
14 -90 38 2 6 6 39 9 74 7 79 29 126 69 146 34 17 86 15 129 -4z"/>
<path d="M4191 3953 c-64 -105 -172 -224 -283 -311 -86 -68 -181 -118 -378
-197 -308 -124 -470 -232 -615 -411 -27 -34 -75 -131 -75 -153 0 -24 69 -69
160 -103 260 -97 664 29 949 297 173 164 297 372 337 565 12 61 11 173 -3 233
-11 48 -47 138 -56 137 -1 0 -18 -26 -36 -57z"/>
<path d="M5841 3160 c-70 -23 -133 -86 -176 -175 -32 -68 -161 -443 -154 -449
9 -7 848 -286 861 -286 8 0 27 43 49 109 l36 108 -126 43 c-69 23 -138 46
-153 52 l-26 10 24 66 c64 176 73 283 30 373 -28 60 -52 87 -106 116 -88 49
-178 61 -259 33z m154 -254 c52 -34 57 -94 20 -207 l-25 -75 -118 39 c-64 22
-119 41 -121 43 -6 6 41 139 61 173 12 18 34 39 50 46 35 14 95 6 133 -19z"/>
<path d="M5227 2060 l-76 -119 281 -368 c155 -202 284 -370 288 -373 4 -3 11
-13 17 -23 8 -16 18 -5 71 77 34 53 62 101 62 107 0 6 -21 36 -46 67 -26 31
-49 62 -51 69 -3 6 15 42 39 80 25 37 69 107 98 154 l54 85 75 -18 c99 -23 98
-23 121 15 11 17 24 39 30 47 33 49 71 113 67 116 -2 2 -37 11 -78 19 -102 22
-107 24 -164 35 -27 5 -59 11 -70 14 -128 28 -496 106 -515 110 -14 2 -45 9
-70 15 -25 6 -48 11 -51 11 -4 0 -40 -54 -82 -120z m337 -151 c72 -17 138 -32
146 -34 42 -9 70 -18 70 -23 0 -12 -124 -202 -131 -200 -8 3 -229 276 -229
283 0 8 5 7 144 -26z"/>
</g>
</svg>
